<svg data-v-5f19e91b="" xmlns="http://www.w3.org/2000/svg" width="421" height="72" viewBox="0 0 421 72"><!----> <!----> <!----> <g data-v-5f19e91b="" id="cd8a78f3-f4a2-126d-3cc2-023440b9df3e" fill="white" transform="matrix(3.582089552238806,0,0,3.582089552238806,90.5749249751888,-7.194594233783327)"><path d="M7.20 16.21L7.20 16.21L7.20 16.21Q7.17 16.23 7.14 16.23L7.14 16.23L7.14 16.23Q7.11 16.23 7.03 16.23L7.03 16.23L7.03 16.23Q6.83 16.23 6.57 16.16L6.57 16.16L6.57 16.16Q6.31 16.10 6.07 16.01L6.07 16.01L6.07 16.01Q5.82 15.92 5.65 15.81L5.65 15.81L5.65 15.81Q5.47 15.69 5.43 15.61L5.43 15.61L5.43 15.61Q5.42 15.41 5.42 15.20L5.42 15.20L5.42 15.20Q5.42 14.99 5.42 14.80L5.42 14.80L5.42 14.80Q5.42 13.23 5.65 11.52L5.65 11.52L5.65 11.52Q5.88 9.81 6.41 7.83L6.41 7.83L6.41 7.83Q6.47 7.63 6.53 7.33L6.53 7.33L6.53 7.33Q6.59 7.03 6.66 6.68L6.66 6.68L6.66 6.68Q6.33 6.94 5.87 7.53L5.87 7.53L5.87 7.53Q5.40 8.11 4.89 8.90L4.89 8.90L4.89 8.90Q4.38 9.69 3.87 10.63L3.87 10.63L3.87 10.63Q3.36 11.58 2.94 12.55L2.94 12.55L2.94 12.55Q2.52 13.52 2.22 14.48L2.22 14.48L2.22 14.48Q1.92 15.43 1.85 16.24L1.85 16.24L1.85 16.24Q1.18 16.04 0.92 15.85L0.92 15.85L0.92 15.85Q0.66 15.65 0.66 15.37L0.66 15.37L0.66 15.37Q0.66 15.12 0.81 14.66L0.81 14.66L0.81 14.66Q0.97 14.20 1.25 13.57L1.25 13.57L1.25 13.57Q1.53 12.94 1.93 12.16L1.93 12.16L1.93 12.16Q2.34 11.38 2.83 10.49L2.83 10.49L2.83 10.49Q3.39 9.46 3.93 8.57L3.93 8.57L3.93 8.57Q4.47 7.67 4.98 6.94L4.98 6.94L4.98 6.94Q5.50 6.22 6.00 5.68L6.00 5.68L6.00 5.68Q6.50 5.15 6.99 4.87L6.99 4.87L6.99 4.87Q7.18 4.87 7.51 4.97L7.51 4.97L7.51 4.97Q7.84 5.07 8.15 5.21L8.15 5.21L8.15 5.21Q8.47 5.35 8.71 5.49L8.71 5.49L8.71 5.49Q8.96 5.64 8.99 5.74L8.99 5.74L8.99 5.74Q8.79 6.13 8.53 6.92L8.53 6.92L8.53 6.92Q8.26 7.70 7.99 8.69L7.99 8.69L7.99 8.69Q7.71 9.69 7.47 10.80L7.47 10.80L7.47 10.80Q7.22 11.91 7.08 12.94L7.08 12.94L7.08 12.94Q7.41 12.17 7.83 11.33L7.83 11.33L7.83 11.33Q8.26 10.50 8.74 9.68L8.74 9.68L8.74 9.68Q9.21 8.86 9.71 8.09L9.71 8.09L9.71 8.09Q10.21 7.32 10.68 6.69L10.68 6.69L10.68 6.69Q11.16 6.05 11.57 5.57L11.57 5.57L11.57 5.57Q11.98 5.10 12.31 4.87L12.31 4.87L12.31 4.87Q12.50 4.87 12.83 4.97L12.83 4.97L12.83 4.97Q13.16 5.07 13.47 5.21L13.47 5.21L13.47 5.21Q13.79 5.35 14.04 5.49L14.04 5.49L14.04 5.49Q14.28 5.64 14.31 5.74L14.31 5.74L14.31 5.74Q13.86 6.54 13.52 7.69L13.52 7.69L13.52 7.69Q13.19 8.83 12.96 10.09L12.96 10.09L12.96 10.09Q12.73 11.35 12.61 12.59L12.61 12.59L12.61 12.59Q12.49 13.83 12.49 14.81L12.49 14.81L12.49 14.81Q12.49 15.13 12.49 15.48L12.49 15.48L12.49 15.48Q12.49 15.83 12.52 16.21L12.52 16.21L12.52 16.21Q12.32 16.21 12.05 16.16L12.05 16.16L12.05 16.16Q11.77 16.11 11.52 16.03L11.52 16.03L11.52 16.03Q11.26 15.95 11.05 15.84L11.05 15.84L11.05 15.84Q10.84 15.74 10.75 15.61L10.75 15.61L10.75 15.61Q10.74 15.41 10.74 15.20L10.74 15.20L10.74 15.20Q10.74 14.99 10.74 14.80L10.74 14.80L10.74 14.80Q10.74 13.23 10.97 11.52L10.97 11.52L10.97 11.52Q11.20 9.81 11.73 7.83L11.73 7.83L11.73 7.83Q11.79 7.63 11.86 7.29L11.86 7.29L11.86 7.29Q11.93 6.96 12.00 6.59L12.00 6.59L12.00 6.59Q11.61 6.79 11.11 7.34L11.11 7.34L11.11 7.34Q10.61 7.90 10.10 8.69L10.10 8.69L10.10 8.69Q9.59 9.48 9.09 10.44L9.09 10.44L9.09 10.44Q8.60 11.41 8.20 12.41L8.20 12.41L8.20 12.41Q7.80 13.41 7.53 14.40L7.53 14.40L7.53 14.40Q7.25 15.39 7.20 16.21ZM15.82 15.67L15.82 15.67L15.82 15.67Q15.02 15.58 14.55 14.97L14.55 14.97L14.55 14.97Q14.07 14.35 14.07 13.40L14.07 13.40L14.07 13.40Q14.07 12.84 14.24 12.24L14.24 12.24L14.24 12.24Q14.41 11.63 14.71 11.07L14.71 11.07L14.71 11.07Q15.02 10.50 15.44 10.00L15.44 10.00L15.44 10.00Q15.86 9.49 16.35 9.13L16.35 9.13L16.35 9.13Q17.12 8.55 17.79 8.55L17.79 8.55L17.79 8.55Q18.24 8.79 18.68 9.55L18.68 9.55L18.68 9.55Q18.75 9.55 18.80 9.54L18.80 9.54L18.80 9.54Q18.86 9.53 18.93 9.53L18.93 9.53L18.93 9.53Q19.67 9.53 19.67 10.85L19.67 10.85L19.67 10.85Q19.67 11.73 19.38 12.52L19.38 12.52L19.38 12.52Q19.10 13.31 18.59 13.96L18.59 13.96L18.59 13.96Q18.07 14.60 17.37 15.04L17.37 15.04L17.37 15.04Q16.66 15.48 15.82 15.67ZM16.53 11.26L16.53 11.26L16.53 11.26Q16.30 11.58 16.09 11.96L16.09 11.96L16.09 11.96Q15.88 12.33 15.72 12.72L15.72 12.72L15.72 12.72Q15.57 13.10 15.48 13.46L15.48 13.46L15.48 13.46Q15.40 13.82 15.40 14.10L15.40 14.10L15.40 14.10Q15.40 14.43 15.51 14.74L15.51 14.74L15.51 14.74Q15.62 15.05 15.76 15.09L15.76 15.09L15.76 15.09Q16.39 14.95 16.92 14.57L16.92 14.57L16.92 14.57Q17.44 14.18 17.83 13.61L17.83 13.61L17.83 13.61Q18.21 13.03 18.43 12.31L18.43 12.31L18.43 12.31Q18.65 11.58 18.65 10.75L18.65 10.75L18.65 10.75Q18.65 10.39 18.61 10.18L18.61 10.18L18.61 10.18Q18.56 9.97 18.47 9.81L18.47 9.81L18.47 9.81Q17.85 10.00 17.37 10.40L17.37 10.40L17.37 10.40Q16.88 10.81 16.53 11.26ZM20.01 14.90L20.01 14.90L20.01 14.90Q20.08 14.49 20.25 13.82L20.25 13.82L20.25 13.82Q20.43 13.16 20.66 12.41L20.66 12.41L20.66 12.41Q20.90 11.66 21.17 10.91L21.17 10.91L21.17 10.91Q21.43 10.15 21.69 9.55L21.69 9.55L21.69 9.55Q21.87 9.11 22.01 8.87L22.01 8.87L22.01 8.87Q22.15 8.62 22.32 8.46L22.32 8.46L22.32 8.46Q22.51 8.48 22.72 8.55L22.72 8.55L22.72 8.55Q22.93 8.62 23.13 8.72L23.13 8.72L23.13 8.72Q23.32 8.82 23.48 8.93L23.48 8.93L23.48 8.93Q23.63 9.03 23.72 9.13L23.72 9.13L23.72 9.13Q23.34 9.58 23.05 10.15L23.05 10.15L23.05 10.15Q22.76 10.72 22.47 11.62L22.47 11.62L22.47 11.62Q23.23 10.95 23.81 10.33L23.81 10.33L23.81 10.33Q24.39 9.72 24.89 8.96L24.89 8.96L24.89 8.96Q24.98 8.89 25.19 8.89L25.19 8.89L25.19 8.89Q25.38 8.89 25.56 8.95L25.56 8.95L25.56 8.95Q25.75 9.02 25.82 9.13L25.82 9.13L25.82 9.13Q25.56 9.80 25.56 10.46L25.56 10.46L25.56 10.46Q25.56 11.07 25.75 11.38L25.75 11.38L25.75 11.38Q25.73 11.47 25.56 11.70L25.56 11.70L25.56 11.70Q25.38 11.94 25.17 12.15L25.17 12.15L25.17 12.15Q24.79 11.96 24.50 11.61L24.50 11.61L24.50 11.61Q24.21 11.27 24.07 10.86L24.07 10.86L24.07 10.86Q23.41 11.33 22.95 11.77L22.95 11.77L22.95 11.77Q22.48 12.21 22.16 12.75L22.16 12.75L22.16 12.75Q21.83 13.29 21.60 13.99L21.60 13.99L21.60 13.99Q21.36 14.69 21.15 15.65L21.15 15.65L21.15 15.65Q21.03 15.64 20.85 15.56L20.85 15.56L20.85 15.56Q20.68 15.48 20.50 15.37L20.50 15.37L20.50 15.37Q20.33 15.26 20.19 15.13L20.19 15.13L20.19 15.13Q20.05 15.01 20.01 14.90ZM28.25 8.39L28.25 8.39L28.25 8.39Q28.62 8.50 28.94 8.88L28.94 8.88L28.94 8.88Q29.26 9.27 29.41 9.73L29.41 9.73L29.41 9.73Q29.26 10.11 28.94 10.64L28.94 10.64L28.94 10.64Q28.62 11.17 28.29 11.72L28.29 11.72L28.29 11.72Q27.97 12.28 27.71 12.78L27.71 12.78L27.71 12.78Q27.45 13.27 27.41 13.59L27.41 13.59L27.41 13.59Q27.64 13.36 27.91 13.04L27.91 13.04L27.91 13.04Q28.18 12.73 28.44 12.41L28.44 12.41L28.44 12.41Q28.70 12.10 28.92 11.84L28.92 11.84L28.92 11.84Q29.15 11.58 29.27 11.45L29.27 11.45L29.27 11.45Q29.54 11.17 29.90 10.80L29.90 10.80L29.90 10.80Q30.27 10.43 30.67 10.10L30.67 10.10L30.67 10.10Q31.07 9.77 31.47 9.54L31.47 9.54L31.47 9.54Q31.88 9.31 32.21 9.31L32.21 9.31L32.21 9.31Q32.58 9.31 32.82 9.55L32.82 9.55L32.82 9.55Q33.07 9.80 33.21 10.07L33.21 10.07L33.21 10.07Q33.21 10.09 33.10 10.14L33.10 10.14L33.10 10.14Q33.00 10.19 32.80 10.42L32.80 10.42L32.80 10.42Q32.61 10.67 32.36 11.11L32.36 11.11L32.36 11.11Q32.12 11.55 31.89 12.06L31.89 12.06L31.89 12.06Q31.65 12.57 31.50 13.10L31.50 13.10L31.50 13.10Q31.35 13.64 31.35 14.07L31.35 14.07L31.35 14.07Q31.35 14.42 31.44 14.52L31.44 14.52L31.44 14.52Q31.53 14.62 31.70 14.62L31.70 14.62L31.70 14.62Q31.85 14.62 32.02 14.55L32.02 14.55L32.02 14.55Q32.19 14.48 32.28 14.48L32.28 14.48L32.28 14.48Q32.34 14.50 32.38 14.60L32.38 14.60L32.38 14.60Q32.41 14.69 32.41 14.76L32.41 14.76L32.41 14.76Q32.30 14.85 32.14 14.95L32.14 14.95L32.14 14.95Q31.99 15.05 31.82 15.13L31.82 15.13L31.82 15.13Q31.65 15.22 31.49 15.27L31.49 15.27L31.49 15.27Q31.33 15.33 31.21 15.33L31.21 15.33L31.21 15.33Q30.80 15.33 30.54 15.21L30.54 15.21L30.54 15.21Q30.28 15.09 30.14 14.90L30.14 14.90L30.14 14.90Q29.99 14.70 29.93 14.43L29.93 14.43L29.93 14.43Q29.88 14.15 29.88 13.85L29.88 13.85L29.88 13.85Q29.88 13.68 29.90 13.47L29.90 13.47L29.90 13.47Q29.93 13.26 30.02 12.97L30.02 12.97L30.02 12.97Q30.10 12.68 30.25 12.29L30.25 12.29L30.25 12.29Q30.41 11.89 30.65 11.33L30.65 11.33L30.65 11.33Q30.62 11.33 30.27 11.52L30.27 11.52L30.27 11.52Q29.92 11.72 29.51 12.12L29.51 12.12L29.51 12.12Q28.85 12.75 28.33 13.37L28.33 13.37L28.33 13.37Q27.80 13.99 27.26 14.74L27.26 14.74L27.26 14.74Q26.95 15.18 26.72 15.48L26.72 15.48L26.72 15.48Q26.49 15.78 26.32 15.88L26.32 15.88L26.32 15.88Q26.03 15.71 25.89 15.41L25.89 15.41L25.89 15.41Q25.75 15.11 25.68 14.78L25.68 14.78L25.68 14.78Q25.68 14.52 25.75 14.11L25.75 14.11L25.75 14.11Q25.83 13.71 25.96 13.21L25.96 13.21L25.96 13.21Q26.10 12.71 26.29 12.17L26.29 12.17L26.29 12.17Q26.49 11.62 26.73 11.07L26.73 11.07L26.73 11.07Q27.26 9.84 27.70 9.14L27.70 9.14L27.70 9.14Q28.14 8.44 28.25 8.39ZM33.56 14.24L33.56 14.24L33.56 14.24Q33.56 14.11 33.58 13.92L33.58 13.92L33.58 13.92Q33.60 13.73 33.66 13.42L33.66 13.42L33.66 13.42Q33.71 13.10 33.80 12.66L33.80 12.66L33.80 12.66Q33.89 12.21 34.03 11.58L34.03 11.58L34.03 11.58Q34.06 11.44 34.16 11.13L34.16 11.13L34.16 11.13Q34.26 10.82 34.42 10.48L34.42 10.48L34.42 10.48Q34.58 10.14 34.81 9.81L34.81 9.81L34.81 9.81Q35.04 9.49 35.36 9.34L35.36 9.34L35.36 9.34Q35.60 9.39 35.99 9.63L35.99 9.63L35.99 9.63Q36.39 9.86 36.67 10.26L36.67 10.26L36.67 10.26Q36.34 10.63 36.13 10.99L36.13 10.99L36.13 10.99Q35.91 11.35 35.73 11.75L35.73 11.75L35.73 11.75Q35.56 12.14 35.41 12.56L35.41 12.56L35.41 12.56Q35.27 12.98 35.08 13.44L35.08 13.44L35.08 13.44Q34.93 13.83 34.80 14.25L34.80 14.25L34.80 14.25Q34.68 14.66 34.66 14.97L34.66 14.97L34.66 14.97Q34.66 15.22 34.66 15.32L34.66 15.32L34.66 15.32Q34.65 15.43 34.58 15.43L34.58 15.43L34.58 15.43Q34.52 15.43 34.36 15.36L34.36 15.36L34.36 15.36Q34.19 15.29 34.01 15.14L34.01 15.14L34.01 15.14Q33.84 14.99 33.70 14.77L33.70 14.77L33.70 14.77Q33.56 14.55 33.56 14.24ZM36.23 8.16L36.23 8.16L36.23 8.16Q36.23 8.08 36.27 7.91L36.27 7.91L36.27 7.91Q36.20 7.84 36.16 7.70L36.16 7.70L36.16 7.70Q36.11 7.56 36.11 7.45L36.11 7.45L36.11 7.45Q36.11 7.32 36.14 7.11L36.14 7.11L36.14 7.11Q36.18 6.89 36.23 6.64L36.23 6.64L36.23 6.64Q36.29 6.38 36.37 6.11L36.37 6.11L36.37 6.11Q36.46 5.84 36.54 5.61L36.54 5.61L36.54 5.61Q36.71 5.61 36.95 5.71L36.95 5.71L36.95 5.71Q37.20 5.80 37.45 5.94L37.45 5.94L37.45 5.94Q37.70 6.09 37.91 6.27L37.91 6.27L37.91 6.27Q38.12 6.44 38.23 6.59L38.23 6.59L38.23 6.59Q38.08 6.75 37.83 7.02L37.83 7.02L37.83 7.02Q37.58 7.29 37.34 7.59L37.34 7.59L37.34 7.59Q37.10 7.90 36.90 8.16L36.90 8.16L36.90 8.16Q36.71 8.43 36.65 8.54L36.65 8.54L36.65 8.54Q36.48 8.51 36.36 8.39L36.36 8.39L36.36 8.39Q36.23 8.27 36.23 8.16ZM39.12 8.39L39.12 8.39L39.12 8.39Q39.48 8.50 39.80 8.88L39.80 8.88L39.80 8.88Q40.12 9.27 40.28 9.73L40.28 9.73L40.28 9.73Q40.12 10.11 39.80 10.64L39.80 10.64L39.80 10.64Q39.48 11.17 39.16 11.72L39.16 11.72L39.16 11.72Q38.84 12.28 38.58 12.78L38.58 12.78L38.58 12.78Q38.32 13.27 38.28 13.59L38.28 13.59L38.28 13.59Q38.50 13.36 38.77 13.04L38.77 13.04L38.77 13.04Q39.05 12.73 39.30 12.41L39.30 12.41L39.30 12.41Q39.56 12.10 39.79 11.84L39.79 11.84L39.79 11.84Q40.01 11.58 40.14 11.45L40.14 11.45L40.14 11.45Q40.40 11.17 40.77 10.80L40.77 10.80L40.77 10.80Q41.13 10.43 41.53 10.10L41.53 10.10L41.53 10.10Q41.93 9.77 42.34 9.54L42.34 9.54L42.34 9.54Q42.74 9.31 43.08 9.31L43.08 9.31L43.08 9.31Q43.44 9.31 43.69 9.55L43.69 9.55L43.69 9.55Q43.93 9.80 44.07 10.07L44.07 10.07L44.07 10.07Q44.07 10.09 43.97 10.14L43.97 10.14L43.97 10.14Q43.86 10.19 43.67 10.42L43.67 10.42L43.67 10.42Q43.47 10.67 43.23 11.11L43.23 11.11L43.23 11.11Q42.98 11.55 42.75 12.06L42.75 12.06L42.75 12.06Q42.52 12.57 42.36 13.10L42.36 13.10L42.36 13.10Q42.21 13.64 42.21 14.07L42.21 14.07L42.21 14.07Q42.21 14.42 42.30 14.52L42.30 14.52L42.30 14.52Q42.39 14.62 42.56 14.62L42.56 14.62L42.56 14.62Q42.71 14.62 42.88 14.55L42.88 14.55L42.88 14.55Q43.05 14.48 43.15 14.48L43.15 14.48L43.15 14.48Q43.20 14.50 43.24 14.60L43.24 14.60L43.24 14.60Q43.27 14.69 43.27 14.76L43.27 14.76L43.27 14.76Q43.16 14.85 43.01 14.95L43.01 14.95L43.01 14.95Q42.85 15.05 42.69 15.13L42.69 15.13L42.69 15.13Q42.52 15.22 42.36 15.27L42.36 15.27L42.36 15.27Q42.20 15.33 42.07 15.33L42.07 15.33L42.07 15.33Q41.66 15.33 41.41 15.21L41.41 15.21L41.41 15.21Q41.15 15.09 41.00 14.90L41.00 14.90L41.00 14.90Q40.85 14.70 40.80 14.43L40.80 14.43L40.80 14.43Q40.74 14.15 40.74 13.85L40.74 13.85L40.74 13.85Q40.74 13.68 40.77 13.47L40.77 13.47L40.77 13.47Q40.80 13.26 40.88 12.97L40.88 12.97L40.88 12.97Q40.96 12.68 41.12 12.29L41.12 12.29L41.12 12.29Q41.27 11.89 41.51 11.33L41.51 11.33L41.51 11.33Q41.48 11.33 41.13 11.52L41.13 11.52L41.13 11.52Q40.78 11.72 40.38 12.12L40.38 12.12L40.38 12.12Q39.72 12.75 39.19 13.37L39.19 13.37L39.19 13.37Q38.67 13.99 38.12 14.74L38.12 14.74L38.12 14.74Q37.81 15.18 37.58 15.48L37.58 15.48L37.58 15.48Q37.35 15.78 37.18 15.88L37.18 15.88L37.18 15.88Q36.89 15.71 36.75 15.41L36.75 15.41L36.75 15.41Q36.61 15.11 36.54 14.78L36.54 14.78L36.54 14.78Q36.54 14.52 36.62 14.11L36.62 14.11L36.62 14.11Q36.69 13.71 36.83 13.21L36.83 13.21L36.83 13.21Q36.96 12.71 37.16 12.17L37.16 12.17L37.16 12.17Q37.35 11.62 37.59 11.07L37.59 11.07L37.59 11.07Q38.12 9.84 38.56 9.14L38.56 9.14L38.56 9.14Q39.00 8.44 39.12 8.39ZM41.58 19.35L41.58 19.35L41.58 19.35Q41.58 19.26 41.64 19.19L41.64 19.19L41.64 19.19Q41.69 19.12 41.76 19.05L41.76 19.05L41.76 19.05Q41.93 19.21 42.05 19.29L42.05 19.29L42.05 19.29Q42.17 19.38 42.27 19.43L42.27 19.43L42.27 19.43Q42.38 19.49 42.49 19.50L42.49 19.50L42.49 19.50Q42.60 19.52 42.76 19.52L42.76 19.52L42.76 19.52Q43.48 19.52 44.14 19.13L44.14 19.13L44.14 19.13Q44.80 18.75 45.38 18.02L45.38 18.02L45.38 18.02Q45.96 17.29 46.44 16.24L46.44 16.24L46.44 16.24Q46.91 15.19 47.28 13.86L47.28 13.86L47.28 13.86Q47.11 14.03 46.87 14.23L46.87 14.23L46.87 14.23Q46.62 14.43 46.35 14.62L46.35 14.62L46.35 14.62Q46.09 14.80 45.83 14.95L45.83 14.95L45.83 14.95Q45.57 15.11 45.39 15.18L45.39 15.18L45.39 15.18Q45.15 15.13 44.95 14.97L44.95 14.97L44.95 14.97Q44.74 14.81 44.59 14.57L44.59 14.57L44.59 14.57Q44.44 14.34 44.35 14.04L44.35 14.04L44.35 14.04Q44.27 13.73 44.27 13.40L44.27 13.40L44.27 13.40Q44.27 12.85 44.47 12.28L44.47 12.28L44.47 12.28Q44.67 11.70 45.01 11.15L45.01 11.15L45.01 11.15Q45.35 10.60 45.80 10.11L45.80 10.11L45.80 10.11Q46.26 9.62 46.77 9.25L46.77 9.25L46.77 9.25Q47.28 8.89 47.80 8.67L47.80 8.67L47.80 8.67Q48.33 8.46 48.83 8.46L48.83 8.46L48.83 8.46Q49.32 8.46 49.57 8.66L49.57 8.66L49.57 8.66Q49.81 8.86 49.92 9.35L49.92 9.35L49.92 9.35Q49.77 9.27 49.53 9.27L49.53 9.27L49.53 9.27Q49.20 9.27 48.76 9.53L48.76 9.53L48.76 9.53Q48.31 9.80 47.86 10.23L47.86 10.23L47.86 10.23Q47.40 10.65 46.96 11.21L46.96 11.21L46.96 11.21Q46.51 11.76 46.17 12.33L46.17 12.33L46.17 12.33Q45.82 12.91 45.61 13.45L45.61 13.45L45.61 13.45Q45.39 14 45.39 14.43L45.39 14.43L45.39 14.43Q45.39 14.53 45.40 14.55L45.40 14.55L45.40 14.55Q45.42 14.57 45.44 14.57L45.44 14.57L45.44 14.57Q45.57 14.57 45.79 14.43L45.79 14.43L45.79 14.43Q46.00 14.29 46.28 14.08L46.28 14.08L46.28 14.08Q46.55 13.86 46.84 13.57L46.84 13.57L46.84 13.57Q47.14 13.29 47.40 12.99L47.40 12.99L47.40 12.99Q48.01 12.32 48.50 11.49L48.50 11.49L48.50 11.49Q49.00 10.65 49.29 9.87L49.29 9.87L49.29 9.87Q49.67 9.90 49.97 10.00L49.97 10.00L49.97 10.00Q50.26 10.09 50.37 10.21L50.37 10.21L50.37 10.21Q49.90 11.30 49.61 12.04L49.61 12.04L49.61 12.04Q49.32 12.78 49.11 13.36L49.11 13.36L49.11 13.36Q48.73 14.36 48.41 15.20L48.41 15.20L48.41 15.20Q48.08 16.03 47.73 16.74L47.73 16.74L47.73 16.74Q47.39 17.44 46.99 18.05L46.99 18.05L46.99 18.05Q46.59 18.66 46.09 19.22L46.09 19.22L46.09 19.22Q45.85 19.49 45.55 19.69L45.55 19.69L45.55 19.69Q45.25 19.89 44.93 20.03L44.93 20.03L44.93 20.03Q44.62 20.17 44.32 20.24L44.32 20.24L44.32 20.24Q44.02 20.31 43.76 20.31L43.76 20.31L43.76 20.31Q43.43 20.31 43.08 20.24L43.08 20.24L43.08 20.24Q42.73 20.16 42.43 20.03L42.43 20.03L42.43 20.03Q42.13 19.89 41.90 19.72L41.90 19.72L41.90 19.72Q41.68 19.54 41.58 19.35ZM61.85 10.72L61.85 10.72L61.85 10.72Q62.22 10.72 62.43 10.98L62.43 10.98L62.43 10.98Q62.64 11.23 62.64 11.68L62.64 11.68L62.64 11.68Q62.64 11.79 62.62 11.91L62.62 11.91L62.62 11.91Q62.61 12.03 62.58 12.11L62.58 12.11L62.58 12.11Q62.29 12.04 61.94 12.03L61.94 12.03L61.94 12.03Q61.85 12.64 61.49 13.32L61.49 13.32L61.49 13.32Q61.12 14 60.61 14.60L60.61 14.60L60.61 14.60Q60.09 15.19 59.47 15.64L59.47 15.64L59.47 15.64Q58.86 16.09 58.25 16.24L58.25 16.24L58.25 16.24Q56.38 16.20 55.52 15.27L55.52 15.27L55.52 15.27Q54.66 14.34 54.66 12.36L54.66 12.36L54.66 12.36Q54.66 10.92 55.19 9.57L55.19 9.57L55.19 9.57Q55.72 8.22 56.60 7.17L56.60 7.17L56.60 7.17Q57.48 6.12 58.63 5.48L58.63 5.48L58.63 5.48Q59.77 4.84 61.00 4.84L61.00 4.84L61.00 4.84Q61.96 4.84 62.50 5.25L62.50 5.25L62.50 5.25Q63.04 5.66 63.04 6.40L63.04 6.40L63.04 6.40Q63.04 6.89 62.81 7.31L62.81 7.31L62.81 7.31Q62.58 7.73 62.05 8.22L62.05 8.22L62.05 8.22Q61.73 8.12 61.49 7.88L61.49 7.88L61.49 7.88Q61.25 7.63 61.19 7.31L61.19 7.31L61.19 7.31Q61.67 6.96 61.87 6.66L61.87 6.66L61.87 6.66Q62.06 6.37 62.06 5.96L62.06 5.96L62.06 5.96Q62.06 5.32 61.29 5.32L61.29 5.32L61.29 5.32Q60.66 5.32 59.94 5.79L59.94 5.79L59.94 5.79Q59.22 6.26 58.49 7.14L58.49 7.14L58.49 7.14Q57.46 8.39 56.98 9.71L56.98 9.71L56.98 9.71Q56.50 11.03 56.50 12.68L56.50 12.68L56.50 12.68Q56.50 13.30 56.63 13.80L56.63 13.80L56.63 13.80Q56.76 14.31 56.97 14.69L56.97 14.69L56.97 14.69Q57.18 15.06 57.46 15.29L57.46 15.29L57.46 15.29Q57.75 15.51 58.09 15.54L58.09 15.54L58.09 15.54Q58.53 15.44 58.98 15.09L58.98 15.09L58.98 15.09Q59.43 14.73 59.80 14.25L59.80 14.25L59.80 14.25Q60.17 13.76 60.43 13.21L60.43 13.21L60.43 13.21Q60.69 12.66 60.75 12.15L60.75 12.15L60.75 12.15Q60.35 12.24 60.00 12.31L60.00 12.31L60.00 12.31Q59.64 12.39 59.32 12.39L59.32 12.39L59.32 12.39Q58.90 12.39 58.58 12.18L58.58 12.18L58.58 12.18Q58.27 11.97 58.16 11.61L58.16 11.61L58.16 11.61Q58.41 11.47 58.89 11.31L58.89 11.31L58.89 11.31Q59.37 11.16 59.92 11.03L59.92 11.03L59.92 11.03Q60.47 10.89 60.99 10.81L60.99 10.81L60.99 10.81Q61.52 10.72 61.85 10.72ZM63.13 14.28L63.13 14.28L63.13 14.28Q63.13 13.66 63.42 12.55L63.42 12.55L63.42 12.55Q63.71 11.44 64.25 9.95L64.25 9.95L64.25 9.95Q65.11 7.59 65.88 6.01L65.88 6.01L65.88 6.01Q66.64 4.44 67.37 3.56L67.37 3.56L67.37 3.56Q67.54 3.58 67.78 3.70L67.78 3.70L67.78 3.70Q68.03 3.81 68.26 3.94L68.26 3.94L68.26 3.94Q68.50 4.07 68.69 4.21L68.69 4.21L68.69 4.21Q68.88 4.35 68.94 4.44L68.94 4.44L68.94 4.44Q67.84 5.73 67.02 7.21L67.02 7.21L67.02 7.21Q66.19 8.69 65.51 10.61L65.51 10.61L65.51 10.61Q64.92 12.26 64.61 13.59L64.61 13.59L64.61 13.59Q64.30 14.91 64.30 15.79L64.30 15.79L64.30 15.79Q64.30 16.03 64.30 16.09L64.30 16.09L64.30 16.09Q64.30 16.14 64.32 16.20L64.32 16.20L64.32 16.20Q64.12 16.17 63.98 16.10L63.98 16.10L63.98 16.10Q63.84 16.03 63.80 15.93L63.80 15.93L63.80 15.93Q63.77 15.86 63.64 15.73L63.64 15.73L63.64 15.73Q63.52 15.60 63.42 15.53L63.42 15.53L63.42 15.53Q63.29 15.44 63.21 15.09L63.21 15.09L63.21 15.09Q63.13 14.73 63.13 14.28ZM68.04 15.67L68.04 15.67L68.04 15.67Q67.24 15.58 66.77 14.97L66.77 14.97L66.77 14.97Q66.29 14.35 66.29 13.40L66.29 13.40L66.29 13.40Q66.29 12.84 66.46 12.24L66.46 12.24L66.46 12.24Q66.63 11.63 66.93 11.07L66.93 11.07L66.93 11.07Q67.24 10.50 67.66 10.00L67.66 10.00L67.66 10.00Q68.08 9.49 68.57 9.13L68.57 9.13L68.57 9.13Q69.34 8.55 70.01 8.55L70.01 8.55L70.01 8.55Q70.46 8.79 70.90 9.55L70.90 9.55L70.90 9.55Q70.97 9.55 71.02 9.54L71.02 9.54L71.02 9.54Q71.08 9.53 71.15 9.53L71.15 9.53L71.15 9.53Q71.89 9.53 71.89 10.85L71.89 10.85L71.89 10.85Q71.89 11.73 71.60 12.52L71.60 12.52L71.60 12.52Q71.32 13.31 70.81 13.96L70.81 13.96L70.81 13.96Q70.29 14.60 69.59 15.04L69.59 15.04L69.59 15.04Q68.88 15.48 68.04 15.67ZM68.75 11.26L68.75 11.26L68.75 11.26Q68.52 11.58 68.31 11.96L68.31 11.96L68.31 11.96Q68.10 12.33 67.94 12.72L67.94 12.72L67.94 12.72Q67.79 13.10 67.70 13.46L67.70 13.46L67.70 13.46Q67.62 13.82 67.62 14.10L67.62 14.10L67.62 14.10Q67.62 14.43 67.73 14.74L67.73 14.74L67.73 14.74Q67.84 15.05 67.98 15.09L67.98 15.09L67.98 15.09Q68.61 14.95 69.14 14.57L69.14 14.57L69.14 14.57Q69.66 14.18 70.05 13.61L70.05 13.61L70.05 13.61Q70.43 13.03 70.65 12.31L70.65 12.31L70.65 12.31Q70.87 11.58 70.87 10.75L70.87 10.75L70.87 10.75Q70.87 10.39 70.83 10.18L70.83 10.18L70.83 10.18Q70.78 9.97 70.69 9.81L70.69 9.81L70.69 9.81Q70.07 10.00 69.59 10.40L69.59 10.40L69.59 10.40Q69.10 10.81 68.75 11.26ZM72.23 14.90L72.23 14.90L72.23 14.90Q72.30 14.49 72.47 13.82L72.47 13.82L72.47 13.82Q72.65 13.16 72.88 12.41L72.88 12.41L72.88 12.41Q73.12 11.66 73.39 10.91L73.39 10.91L73.39 10.91Q73.65 10.15 73.91 9.55L73.91 9.55L73.91 9.55Q74.09 9.11 74.23 8.87L74.23 8.87L74.23 8.87Q74.37 8.62 74.54 8.46L74.54 8.46L74.54 8.46Q74.73 8.48 74.94 8.55L74.94 8.55L74.94 8.55Q75.15 8.62 75.35 8.72L75.35 8.72L75.35 8.72Q75.54 8.82 75.70 8.93L75.70 8.93L75.70 8.93Q75.85 9.03 75.94 9.13L75.94 9.13L75.94 9.13Q75.56 9.58 75.27 10.15L75.27 10.15L75.27 10.15Q74.98 10.72 74.69 11.62L74.69 11.62L74.69 11.62Q75.45 10.95 76.03 10.33L76.03 10.33L76.03 10.33Q76.61 9.72 77.11 8.96L77.11 8.96L77.11 8.96Q77.20 8.89 77.41 8.89L77.41 8.89L77.41 8.89Q77.60 8.89 77.78 8.95L77.78 8.95L77.78 8.95Q77.97 9.02 78.04 9.13L78.04 9.13L78.04 9.13Q77.78 9.80 77.78 10.46L77.78 10.46L77.78 10.46Q77.78 11.07 77.97 11.38L77.97 11.38L77.97 11.38Q77.95 11.47 77.78 11.70L77.78 11.70L77.78 11.70Q77.60 11.94 77.39 12.15L77.39 12.15L77.39 12.15Q77.01 11.96 76.72 11.61L76.72 11.61L76.72 11.61Q76.43 11.27 76.29 10.86L76.29 10.86L76.29 10.86Q75.63 11.33 75.17 11.77L75.17 11.77L75.17 11.77Q74.70 12.21 74.38 12.75L74.38 12.75L74.38 12.75Q74.05 13.29 73.82 13.99L73.82 13.99L73.82 13.99Q73.58 14.69 73.37 15.65L73.37 15.65L73.37 15.65Q73.25 15.64 73.07 15.56L73.07 15.56L73.07 15.56Q72.90 15.48 72.72 15.37L72.72 15.37L72.72 15.37Q72.55 15.26 72.41 15.13L72.41 15.13L72.41 15.13Q72.27 15.01 72.23 14.90ZM78.22 14.24L78.22 14.24L78.22 14.24Q78.22 14.11 78.24 13.92L78.24 13.92L78.24 13.92Q78.26 13.73 78.32 13.42L78.32 13.42L78.32 13.42Q78.37 13.10 78.46 12.66L78.46 12.66L78.46 12.66Q78.55 12.21 78.69 11.58L78.69 11.58L78.69 11.58Q78.72 11.44 78.82 11.13L78.82 11.13L78.82 11.13Q78.92 10.82 79.08 10.48L79.08 10.48L79.08 10.48Q79.24 10.14 79.47 9.81L79.47 9.81L79.47 9.81Q79.70 9.49 80.02 9.34L80.02 9.34L80.02 9.34Q80.26 9.39 80.65 9.63L80.65 9.63L80.65 9.63Q81.05 9.86 81.33 10.26L81.33 10.26L81.33 10.26Q81.00 10.63 80.79 10.99L80.79 10.99L80.79 10.99Q80.57 11.35 80.40 11.75L80.40 11.75L80.40 11.75Q80.22 12.14 80.07 12.56L80.07 12.56L80.07 12.56Q79.93 12.98 79.74 13.44L79.74 13.44L79.74 13.44Q79.59 13.83 79.46 14.25L79.46 14.25L79.46 14.25Q79.34 14.66 79.32 14.97L79.32 14.97L79.32 14.97Q79.32 15.22 79.32 15.32L79.32 15.32L79.32 15.32Q79.31 15.43 79.24 15.43L79.24 15.43L79.24 15.43Q79.18 15.43 79.02 15.36L79.02 15.36L79.02 15.36Q78.85 15.29 78.67 15.14L78.67 15.14L78.67 15.14Q78.50 14.99 78.36 14.77L78.36 14.77L78.36 14.77Q78.22 14.55 78.22 14.24ZM80.89 8.16L80.89 8.16L80.89 8.16Q80.89 8.08 80.93 7.91L80.93 7.91L80.93 7.91Q80.86 7.84 80.81 7.70L80.81 7.70L80.81 7.70Q80.77 7.56 80.77 7.45L80.77 7.45L80.77 7.45Q80.77 7.32 80.80 7.11L80.80 7.11L80.80 7.11Q80.84 6.89 80.89 6.64L80.89 6.64L80.89 6.64Q80.95 6.38 81.03 6.11L81.03 6.11L81.03 6.11Q81.12 5.84 81.20 5.61L81.20 5.61L81.20 5.61Q81.37 5.61 81.61 5.71L81.61 5.71L81.61 5.71Q81.86 5.80 82.11 5.94L82.11 5.94L82.11 5.94Q82.36 6.09 82.57 6.27L82.57 6.27L82.57 6.27Q82.78 6.44 82.89 6.59L82.89 6.59L82.89 6.59Q82.74 6.75 82.49 7.02L82.49 7.02L82.49 7.02Q82.24 7.29 82.00 7.59L82.00 7.59L82.00 7.59Q81.76 7.90 81.56 8.16L81.56 8.16L81.56 8.16Q81.37 8.43 81.31 8.54L81.31 8.54L81.31 8.54Q81.14 8.51 81.02 8.39L81.02 8.39L81.02 8.39Q80.89 8.27 80.89 8.16ZM86.52 9.38L86.52 9.38L86.52 9.38Q86.46 10.25 86.21 10.87L86.21 10.87L86.21 10.87Q85.96 11.49 85.49 11.96L85.49 11.96L85.49 11.96Q85.02 12.43 84.35 12.81L84.35 12.81L84.35 12.81Q83.68 13.19 82.78 13.54L82.78 13.54L82.78 13.54Q82.78 13.62 82.78 13.71L82.78 13.71L82.78 13.71Q82.77 13.80 82.77 13.90L82.77 13.90L82.77 13.90Q82.77 14.08 82.80 14.28L82.80 14.28L82.80 14.28Q82.82 14.48 82.89 14.64L82.89 14.64L82.89 14.64Q82.96 14.81 83.09 14.92L83.09 14.92L83.09 14.92Q83.22 15.02 83.41 15.02L83.41 15.02L83.41 15.02Q83.79 15.02 84.15 14.85L84.15 14.85L84.15 14.85Q84.52 14.69 84.85 14.44L84.85 14.44L84.85 14.44Q85.18 14.20 85.46 13.91L85.46 13.91L85.46 13.91Q85.75 13.62 85.97 13.38L85.97 13.38L85.97 13.38Q86.11 13.51 86.21 13.62L86.21 13.62L86.21 13.62Q85.58 14.46 84.83 15.02L84.83 15.02L84.83 15.02Q84.08 15.57 83.41 15.72L83.41 15.72L83.41 15.72Q82.45 15.61 81.91 15.02L81.91 15.02L81.91 15.02Q81.37 14.42 81.37 13.58L81.37 13.58L81.37 13.58Q81.37 13.01 81.53 12.41L81.53 12.41L81.53 12.41Q81.69 11.82 81.98 11.26L81.98 11.26L81.98 11.26Q82.26 10.71 82.65 10.22L82.65 10.22L82.65 10.22Q83.03 9.73 83.48 9.37L83.48 9.37L83.48 9.37Q83.92 9.00 84.39 8.79L84.39 8.79L84.39 8.79Q84.85 8.58 85.32 8.58L85.32 8.58L85.32 8.58Q85.96 8.67 86.52 9.38ZM85.55 9.84L85.55 9.84L85.55 9.84Q85.18 9.90 84.77 10.15L84.77 10.15L84.77 10.15Q84.36 10.40 84.01 10.82L84.01 10.82L84.01 10.82Q83.65 11.24 83.36 11.80L83.36 11.80L83.36 11.80Q83.06 12.36 82.89 13.01L82.89 13.01L82.89 13.01Q84.01 12.45 84.76 11.63L84.76 11.63L84.76 11.63Q85.50 10.81 85.55 9.84ZM91.99 9.60L91.99 9.60L91.99 9.60Q91.98 9.87 91.90 10.16L91.90 10.16L91.90 10.16Q91.83 10.44 91.71 10.68L91.71 10.68L91.71 10.68Q91.60 10.91 91.48 11.06L91.48 11.06L91.48 11.06Q91.35 11.21 91.24 11.21L91.24 11.21L91.24 11.21Q91.08 11.20 91.06 11.00L91.06 11.00L91.06 11.00Q91.06 10.96 91.09 10.87L91.09 10.87L91.09 10.87Q91.13 10.78 91.17 10.67L91.17 10.67L91.17 10.67Q91.21 10.56 91.25 10.44L91.25 10.44L91.25 10.44Q91.28 10.33 91.28 10.25L91.28 10.25L91.28 10.25Q91.28 10.05 91.19 9.92L91.19 9.92L91.19 9.92Q91.10 9.79 90.94 9.79L90.94 9.79L90.94 9.79Q90.38 9.79 90.09 10.49L90.09 10.49L90.09 10.49Q89.80 11.19 89.80 12.54L89.80 12.54L89.80 12.54Q89.80 12.68 89.81 12.71L89.81 12.71L89.81 12.71Q90.10 12.70 90.34 12.69L90.34 12.69L90.34 12.69Q90.57 12.68 90.79 12.68L90.79 12.68L90.79 12.68Q90.80 12.71 90.80 12.80L90.80 12.80L90.80 12.80Q90.80 12.92 90.75 12.98L90.75 12.98L90.75 12.98Q90.43 13.05 90.24 13.10L90.24 13.10L90.24 13.10Q90.05 13.15 89.95 13.19L89.95 13.19L89.95 13.19Q89.85 13.23 89.83 13.28L89.83 13.28L89.83 13.28Q89.81 13.33 89.81 13.41L89.81 13.41L89.81 13.41Q89.81 13.52 89.82 13.64L89.82 13.64L89.82 13.64Q89.82 13.75 89.82 13.92L89.82 13.92L89.82 13.92Q89.82 15.09 89.19 15.81L89.19 15.81L89.19 15.81Q88.55 16.52 87.42 16.63L87.42 16.63L87.42 16.63Q87.22 16.62 87.01 16.52L87.01 16.52L87.01 16.52Q86.80 16.42 86.61 16.27L86.61 16.27L86.61 16.27Q86.42 16.11 86.28 15.93L86.28 15.93L86.28 15.93Q86.14 15.74 86.09 15.54L86.09 15.54L86.09 15.54Q86.09 15.01 86.31 14.53L86.31 14.53L86.31 14.53Q86.53 14.04 86.92 13.67L86.92 13.67L86.92 13.67Q87.30 13.30 87.83 13.07L87.83 13.07L87.83 13.07Q88.35 12.84 88.97 12.80L88.97 12.80L88.97 12.80Q88.97 12.45 88.90 12.11L88.90 12.11L88.90 12.11Q88.83 11.77 88.75 11.46L88.75 11.46L88.75 11.46Q88.68 11.14 88.61 10.84L88.61 10.84L88.61 10.84Q88.54 10.54 88.54 10.25L88.54 10.25L88.54 10.25Q88.54 9.87 88.69 9.50L88.69 9.50L88.69 9.50Q88.84 9.13 89.10 8.81L89.10 8.81L89.10 8.81Q89.35 8.50 89.68 8.27L89.68 8.27L89.68 8.27Q90.02 8.05 90.38 7.97L90.38 7.97L90.38 7.97Q90.54 8.01 90.80 8.21L90.80 8.21L90.80 8.21Q91.06 8.41 91.31 8.67L91.31 8.67L91.31 8.67Q91.56 8.92 91.76 9.18L91.76 9.18L91.76 9.18Q91.95 9.44 91.99 9.60ZM87.37 15.99L87.37 15.99L87.37 15.99Q87.71 15.85 88.01 15.58L88.01 15.58L88.01 15.58Q88.31 15.32 88.54 14.98L88.54 14.98L88.54 14.98Q88.76 14.64 88.89 14.27L88.89 14.27L88.89 14.27Q89.03 13.89 89.03 13.52L89.03 13.52L89.03 13.52Q88.75 13.57 88.41 13.78L88.41 13.78L88.41 13.78Q88.07 14 87.78 14.30L87.78 14.30L87.78 14.30Q87.49 14.60 87.29 14.92L87.29 14.92L87.29 14.92Q87.09 15.25 87.09 15.48L87.09 15.48L87.09 15.48Q87.09 15.79 87.37 15.99Z"></path></g> <!----> <g data-v-5f19e91b="" id="d471d745-2954-2ed9-bda9-5c7cde0d0a30" transform="matrix(0.8889149983723958,0,0,0.8889149983723958,-7.472905238417056,-8.447054196790369)" stroke="none" fill="white"><path d="M81.728,44.088c0.891,0.378,1.839,0.566,2.84,0.566c1.816,0,3.811-0.621,5.958-1.861c0.394-0.228,0.585-0.692,0.464-1.131  c-0.057-0.208-1.443-5.104-5.483-6.694c-2.373-0.934-5.094-0.523-8.092,1.219c-0.551-0.183-1.497-0.457-2.5-0.579  c0.398-0.929,0.634-1.887,0.751-2.456c3.003-1.723,4.716-3.871,5.094-6.391c0.642-4.288-2.9-7.933-3.051-8.085  c-0.32-0.326-0.819-0.391-1.212-0.164c-3.327,1.921-5.182,4.264-5.513,6.962c-0.42,3.427,1.786,6.31,2.706,7.346  c-0.086,0.395-0.223,0.918-0.404,1.442c-0.11-0.572-0.295-1.131-0.594-1.65c-0.705-1.221-1.843-2.094-3.204-2.458  c-0.863-0.232-1.746-0.217-2.592-0.013c-0.271-1.337-1.295-5.121-4.456-6.885c-2.229-1.243-4.979-1.199-8.183,0.128  c-0.568-0.278-1.581-0.721-2.657-0.967c0.448-0.59,1.006-1.149,1.417-1.519c1.356,0.28,4.964,0.75,7.727-1.331  c2.175-1.639,3.277-4.42,3.277-8.267c0-0.455-0.307-0.853-0.747-0.968c-0.21-0.055-5.143-1.302-8.539,1.403  c-1.996,1.589-3.002,4.149-2.992,7.617c-0.434,0.386-1.143,1.068-1.749,1.875c-0.606-0.809-1.318-1.493-1.753-1.88  c0.01-3.462-0.994-6.02-2.987-7.605c-3.395-2.701-8.319-1.456-8.528-1.401c-0.44,0.115-0.747,0.513-0.747,0.968  c0,3.842,1.102,6.619,3.273,8.256c2.758,2.077,6.358,1.605,7.715,1.328c0.306,0.276,0.693,0.658,1.056,1.078  c-0.547-0.192-1.125-0.317-1.737-0.317c-2.388,0-4.387,1.604-5.035,3.784c-1.292-0.434-5.084-1.44-8.193,0.416  c-2.19,1.309-3.528,3.713-3.98,7.151c-0.524,0.353-1.416,1.01-2.166,1.818c-0.287-0.683-0.492-1.446-0.608-1.987  c0.921-1.036,3.132-3.924,2.711-7.357c-0.332-2.702-2.189-5.048-5.521-6.971c-0.394-0.226-0.892-0.161-1.212,0.163  c-0.151,0.153-3.697,3.802-3.055,8.096c0.378,2.523,2.094,4.675,5.102,6.4c0.117,0.568,0.353,1.524,0.749,2.452  c-1.003,0.121-1.951,0.395-2.504,0.578c-2.992-1.738-5.708-2.147-8.081-1.216c-4.034,1.588-5.419,6.477-5.476,6.685  c-0.121,0.438,0.07,0.903,0.464,1.131c2.145,1.238,4.136,1.859,5.95,1.858c1,0,1.946-0.188,2.836-0.565  c3.178-1.35,4.571-4.702,5.008-6.017c0.385-0.124,0.907-0.267,1.452-0.373c-0.441,0.381-0.833,0.822-1.134,1.342  c-1.194,2.067-0.803,4.601,0.76,6.252c-1.021,0.901-3.791,3.681-3.737,7.303c0.038,2.551,1.451,4.911,4.202,7.022  c0.044,0.63,0.167,1.731,0.491,2.784c-0.735-0.093-1.498-0.297-2.024-0.467c-0.437-1.315-1.832-4.675-5.015-6.026  c-2.508-1.064-5.467-0.629-8.798,1.295c-0.394,0.228-0.585,0.692-0.464,1.131c0.057,0.208,1.443,5.104,5.483,6.694  c0.826,0.325,1.694,0.487,2.602,0.487c1.699,0,3.536-0.57,5.49-1.706c0.551,0.183,1.497,0.457,2.5,0.579  c-0.398,0.929-0.634,1.887-0.751,2.456c-3.003,1.723-4.716,3.871-5.094,6.391c-0.642,4.288,2.9,7.933,3.051,8.085  c0.193,0.196,0.451,0.298,0.712,0.298c0.172,0,0.344-0.044,0.5-0.134c3.327-1.921,5.182-4.264,5.513-6.962  c0.42-3.427-1.786-6.31-2.706-7.346c0.086-0.395,0.223-0.918,0.404-1.442c0.11,0.572,0.295,1.131,0.594,1.65  c0.705,1.221,1.843,2.094,3.204,2.458c0.454,0.122,0.916,0.183,1.374,0.183c0.412,0,0.821-0.056,1.221-0.152  c0.277,1.353,1.306,5.112,4.453,6.867c2.229,1.242,4.979,1.198,8.183-0.128c0.568,0.278,1.583,0.721,2.657,0.967  c-0.448,0.59-1.006,1.149-1.417,1.519c-1.357-0.281-4.964-0.75-7.727,1.331c-2.175,1.639-3.277,4.42-3.277,8.267  c0,0.455,0.307,0.853,0.747,0.968c0.102,0.026,1.316,0.334,2.928,0.334c1.709,0,3.863-0.346,5.611-1.737  c1.996-1.589,3.002-4.149,2.992-7.617c0.434-0.386,1.143-1.068,1.749-1.875c0.606,0.809,1.318,1.493,1.753,1.88  c-0.01,3.462,0.994,6.02,2.987,7.605c1.746,1.39,3.897,1.734,5.604,1.734c1.61,0,2.823-0.307,2.925-0.333  c0.44-0.115,0.747-0.513,0.747-0.968c0-3.842-1.102-6.619-3.273-8.256c-2.758-2.077-6.359-1.606-7.715-1.328  c-0.306-0.276-0.693-0.658-1.056-1.078c0.547,0.192,1.125,0.317,1.737,0.317c2.388,0,4.387-1.604,5.035-3.784  c0.724,0.243,2.225,0.663,3.956,0.663c1.364,0,2.868-0.262,4.237-1.079c2.19-1.309,3.528-3.713,3.98-7.151  c0.524-0.353,1.416-1.01,2.166-1.818c0.287,0.683,0.492,1.446,0.608,1.987c-0.921,1.036-3.132,3.924-2.711,7.357  c0.332,2.702,2.189,5.048,5.521,6.971c0.156,0.09,0.328,0.134,0.5,0.134c0.261,0,0.519-0.102,0.712-0.297  c0.151-0.153,3.697-3.802,3.055-8.096c-0.378-2.523-2.094-4.675-5.102-6.4c-0.117-0.568-0.353-1.523-0.749-2.451  c1.004-0.121,1.951-0.396,2.503-0.58c1.951,1.134,3.785,1.703,5.482,1.703c0.905,0,1.773-0.163,2.599-0.487  c4.034-1.588,5.419-6.477,5.476-6.685c0.121-0.438-0.07-0.903-0.464-1.131c-3.326-1.921-6.281-2.354-8.786-1.293  c-3.178,1.35-4.571,4.702-5.008,6.017c-0.385,0.124-0.908,0.268-1.453,0.373c0.441-0.382,0.834-0.823,1.135-1.343  c1.194-2.067,0.803-4.601-0.76-6.252c1.021-0.901,3.791-3.681,3.737-7.303c-0.038-2.551-1.451-4.911-4.202-7.022  c-0.044-0.63-0.167-1.73-0.491-2.783c0.735,0.093,1.498,0.297,2.024,0.466C77.149,39.377,78.545,42.736,81.728,44.088z   M84.765,36.826c1.672,0.654,2.785,2.146,3.459,3.393l-8.247-3.083C81.773,36.389,83.377,36.284,84.765,36.826z M87.448,42.063  c-1.878,0.716-3.528,0.777-4.929,0.188c-1.573-0.664-2.603-2.058-3.226-3.235L87.448,42.063z M77.575,21.792  c0.74,1.205,1.474,2.911,1.205,4.682c-0.223,1.468-1.113,2.802-2.655,3.982L77.575,21.792z M59.549,17.963  c-1.362,1.031-3.084,1.227-4.415,1.176l6.718-5.538C61.531,15.584,60.761,17.046,59.549,17.963z M55.974,13.306  c1.305-1.042,2.995-1.304,4.363-1.304c0.104,0,0.205,0.001,0.305,0.004l-6.795,5.602C54.099,15.677,54.811,14.234,55.974,13.306z   M40.446,17.96c-1.208-0.914-1.978-2.373-2.297-4.351l6.7,5.524C43.534,19.19,41.806,18.989,40.446,17.96z M39.359,12.015  c1.398-0.03,3.257,0.18,4.656,1.298c1.159,0.927,1.869,2.365,2.121,4.29L39.359,12.015z M21.208,26.48  c-0.27-1.775,0.467-3.486,1.209-4.692l1.453,8.685C22.324,29.289,21.432,27.951,21.208,26.48z M15.235,36.839  c0.581-0.228,1.2-0.341,1.855-0.341c0.906,0,1.881,0.217,2.922,0.648l-8.229,3.076C12.457,38.979,13.567,37.492,15.235,36.839z   M17.477,42.253c-1.397,0.59-3.045,0.526-4.916-0.186l8.134-3.041C20.072,40.202,19.046,41.591,17.477,42.253z M15.235,63.174  c-1.672-0.654-2.785-2.146-3.459-3.393l8.247,3.083C18.228,63.612,16.624,63.717,15.235,63.174z M12.552,57.937  c1.879-0.714,3.529-0.776,4.929-0.188c1.573,0.664,2.603,2.058,3.226,3.235L12.552,57.937z M22.425,78.208  c-0.74-1.205-1.474-2.911-1.205-4.682c0.223-1.468,1.113-2.802,2.655-3.982L22.425,78.208z M40.451,82.037  c1.238-0.938,2.773-1.183,4.043-1.183c0.127,0,0.251,0.002,0.372,0.007l-6.718,5.538C38.469,84.417,39.239,82.954,40.451,82.037z   M44.026,86.694c-1.403,1.121-3.249,1.344-4.668,1.3l6.795-5.602C45.901,84.323,45.189,85.766,44.026,86.694z M59.554,82.04  c1.208,0.914,1.978,2.373,2.297,4.351l-6.7-5.524C56.471,80.814,58.194,81.012,59.554,82.04z M60.641,87.985  c-1.397,0.031-3.257-0.18-4.656-1.298c-1.159-0.927-1.869-2.365-2.121-4.29L60.641,87.985z M78.792,73.52  c0.27,1.775-0.467,3.486-1.209,4.692l-1.453-8.685C77.676,70.711,78.568,72.049,78.792,73.52z M84.765,63.161  c-1.385,0.543-2.983,0.436-4.777-0.308l8.229-3.076C87.543,61.021,86.433,62.508,84.765,63.161z M82.523,57.747  c0.632-0.267,1.314-0.399,2.046-0.399c0.887,0,1.845,0.195,2.87,0.585l-8.134,3.041C79.928,59.798,80.954,58.409,82.523,57.747z   M72.97,25.718c0.185-1.508,1.063-2.907,2.62-4.176l-1.435,8.573C73.449,28.993,72.762,27.415,72.97,25.718z M68.971,32.085  c0.846,0.227,1.552,0.769,1.989,1.526c0.903,1.563,0.365,3.57-1.199,4.474c-1.563,0.902-3.571,0.365-4.474-1.198  c-0.438-0.758-0.554-1.641-0.327-2.485c0.226-0.846,0.768-1.552,1.525-1.989c0.505-0.292,1.064-0.44,1.632-0.44  C68.402,31.972,68.688,32.009,68.971,32.085z M61.458,24.998c2.157,1.197,3.058,3.823,3.383,5.127  c-2.59,0.918-4.718,0.902-6.332-0.05c-2.071-1.223-2.879-3.734-3.161-4.975C57.812,24.146,59.864,24.112,61.458,24.998z   M46.286,23.653c1.806,0,3.275,1.47,3.275,3.275s-1.47,3.275-3.275,3.275s-3.275-1.47-3.275-3.275S44.48,23.653,46.286,23.653z   M34.076,27.576c2.116-1.27,4.842-0.735,6.133-0.367c-0.5,2.703-1.577,4.537-3.21,5.459c-2.093,1.185-4.673,0.628-5.889,0.251  C31.515,30.311,32.511,28.515,34.076,27.576z M26.525,44.517c-1.563-0.902-2.102-2.909-1.198-4.474  c0.606-1.05,1.709-1.638,2.842-1.638c0.556,0,1.117,0.142,1.632,0.438c1.564,0.903,2.103,2.91,1.199,4.475  c-0.438,0.758-1.144,1.3-1.989,1.525C28.168,45.072,27.283,44.955,26.525,44.517z M27.029,25.712  c0.212,1.694-0.48,3.282-1.189,4.411l-1.438-8.586C25.96,22.806,26.841,24.204,27.029,25.712z M22.618,52.578  c-0.041-2.467,1.782-4.561,2.749-5.494c2.091,1.784,3.141,3.634,3.123,5.509c-0.023,2.405-1.795,4.361-2.728,5.226  C23.706,56.164,22.648,54.403,22.618,52.578z M27.03,74.282c-0.185,1.508-1.063,2.907-2.62,4.176l1.435-8.573  C26.551,71.007,27.238,72.585,27.03,74.282z M31.029,67.915c-0.846-0.227-1.552-0.769-1.989-1.526  c-0.903-1.563-0.365-3.57,1.199-4.474c0.515-0.297,1.076-0.438,1.632-0.438c1.133,0,2.236,0.588,2.842,1.637  c0.438,0.758,0.554,1.641,0.327,2.485c-0.226,0.846-0.768,1.552-1.525,1.989C32.756,68.027,31.874,68.143,31.029,67.915z   M38.542,75.002c-2.157-1.197-3.058-3.823-3.383-5.127c2.59-0.918,4.718-0.902,6.332,0.05c2.071,1.223,2.879,3.734,3.161,4.975  C42.189,75.854,40.138,75.889,38.542,75.002z M53.714,76.347c-1.806,0-3.275-1.47-3.275-3.275s1.47-3.275,3.275-3.275  s3.275,1.47,3.275,3.275S55.52,76.347,53.714,76.347z M65.924,72.424c-2.116,1.27-4.842,0.735-6.133,0.367  c0.5-2.703,1.577-4.537,3.21-5.459c2.095-1.184,4.674-0.626,5.889-0.251C68.485,69.689,67.489,71.485,65.924,72.424z M69.865,65.294  c-1.308-0.457-4.82-1.406-7.835,0.289c-1.734,0.974-2.977,2.637-3.724,4.944c-0.901-1.62-2.611-2.731-4.593-2.731  c-2.909,0-5.275,2.366-5.275,5.275c0,0.964,0.279,1.856,0.732,2.635c-0.868-0.149-1.858-0.556-2.483-0.854  c-0.258-1.362-1.192-4.877-4.167-6.642c-1.711-1.015-3.771-1.26-6.141-0.754c0.25-0.417,0.463-0.858,0.593-1.34  c0.364-1.361,0.177-2.782-0.527-4.003c-1.455-2.519-4.688-3.384-7.206-1.931c-0.817,0.472-1.459,1.149-1.917,1.945  c-0.305-0.828-0.448-1.881-0.501-2.571c1.051-0.904,3.628-3.472,3.668-6.93c0.023-1.98-0.789-3.88-2.399-5.673  c0.022,0,0.043,0.004,0.065,0.004c0.458,0,0.919-0.061,1.373-0.182c1.361-0.365,2.499-1.237,3.204-2.458  c1.454-2.52,0.588-5.752-1.932-7.207c-0.816-0.471-1.724-0.689-2.642-0.687c0.565-0.677,1.405-1.327,1.976-1.718  c1.309,0.458,4.82,1.406,7.835-0.289c1.734-0.974,2.977-2.637,3.724-4.944c0.901,1.62,2.611,2.731,4.593,2.731  c2.909,0,5.275-2.366,5.275-5.275c0-0.966-0.28-1.859-0.734-2.639c0.871,0.147,1.859,0.559,2.485,0.858  c0.258,1.362,1.192,4.877,4.167,6.642c1.141,0.677,2.436,1.015,3.875,1.015c0.718,0,1.475-0.091,2.265-0.259  c-0.249,0.417-0.462,0.857-0.592,1.338c-0.364,1.361-0.177,2.782,0.527,4.003c0.977,1.69,2.753,2.636,4.577,2.636  c0.895,0,1.801-0.227,2.629-0.705c0.817-0.472,1.459-1.149,1.917-1.945c0.305,0.828,0.448,1.881,0.501,2.571  c-1.051,0.904-3.628,3.472-3.668,6.93c-0.024,1.988,0.794,3.895,2.417,5.695c-0.486-0.008-0.974,0.027-1.456,0.156  c-1.361,0.365-2.499,1.237-3.204,2.458c-1.454,2.52-0.588,5.752,1.932,7.207c0.811,0.468,1.712,0.708,2.625,0.709  C71.259,64.267,70.43,64.907,69.865,65.294z M70.199,61.156c-1.564-0.903-2.103-2.91-1.199-4.475c0.438-0.758,1.144-1.3,1.989-1.525  c0.281-0.076,0.568-0.113,0.853-0.113c0.567,0,1.128,0.148,1.633,0.44c1.563,0.902,2.102,2.909,1.198,4.474  C73.769,61.521,71.763,62.06,70.199,61.156z M72.971,74.288c-0.212-1.694,0.48-3.282,1.189-4.411l1.438,8.586  C74.04,77.194,73.159,75.796,72.971,74.288z M77.382,47.422c0.041,2.467-1.782,4.561-2.749,5.494  c-2.091-1.784-3.141-3.634-3.123-5.509c0.023-2.405,1.795-4.361,2.728-5.226C76.294,43.836,77.352,45.597,77.382,47.422z"></path></g></svg>