<svg data-v-1084b650="" xmlns="http://www.w3.org/2000/svg" viewBox="0 0 300 300"><!----> <!----> <rect data-v-1084b650="" fill="#ffffff" x="0" y="0" width="300px" height="300px" class="logo-background-square"></rect> <!----> <linearGradient data-v-1084b650="" gradientTransform="rotate(25)" id="53606f40-e123-e695-d9d0-2856027467d2" x1="0%" y1="0%" x2="100%" y2="0%"><stop data-v-1084b650="" offset="0%" style="stop-color: rgb(120, 49, 146); stop-opacity: 1;"></stop> <stop data-v-1084b650="" offset="100%" style="stop-color: rgb(89, 188, 200); stop-opacity: 1;"></stop></linearGradient> <g data-v-1084b650="" id="e375a41e-053c-ec77-6c67-ddd599ca54b5" fill="url(#53606f40-e123-e695-d9d0-2856027467d2)" stroke="none" transform="matrix(0.8499999999999999,0,0,0.8499999999999999,22.50259561538698,22.502970123291036)"><svg xmlns="http://www.w3.org/2000/svg" xmlns:xlink="http://www.w3.org/1999/xlink" version="1.1" x="0px" y="0px" viewBox="0 0 100 100" style="enable-background:new 0 0 100 100;" xml:space="preserve"><path d="M81.728,44.088c0.891,0.378,1.839,0.566,2.84,0.566c1.816,0,3.811-0.621,5.958-1.861c0.394-0.228,0.585-0.692,0.464-1.131  c-0.057-0.208-1.443-5.104-5.483-6.694c-2.373-0.934-5.094-0.523-8.092,1.219c-0.551-0.183-1.497-0.457-2.5-0.579  c0.398-0.929,0.634-1.887,0.751-2.456c3.003-1.723,4.716-3.871,5.094-6.391c0.642-4.288-2.9-7.933-3.051-8.085  c-0.32-0.326-0.819-0.391-1.212-0.164c-3.327,1.921-5.182,4.264-5.513,6.962c-0.42,3.427,1.786,6.31,2.706,7.346  c-0.086,0.395-0.223,0.918-0.404,1.442c-0.11-0.572-0.295-1.131-0.594-1.65c-0.705-1.221-1.843-2.094-3.204-2.458  c-0.863-0.232-1.746-0.217-2.592-0.013c-0.271-1.337-1.295-5.121-4.456-6.885c-2.229-1.243-4.979-1.199-8.183,0.128  c-0.568-0.278-1.581-0.721-2.657-0.967c0.448-0.59,1.006-1.149,1.417-1.519c1.356,0.28,4.964,0.75,7.727-1.331  c2.175-1.639,3.277-4.42,3.277-8.267c0-0.455-0.307-0.853-0.747-0.968c-0.21-0.055-5.143-1.302-8.539,1.403  c-1.996,1.589-3.002,4.149-2.992,7.617c-0.434,0.386-1.143,1.068-1.749,1.875c-0.606-0.809-1.318-1.493-1.753-1.88  c0.01-3.462-0.994-6.02-2.987-7.605c-3.395-2.701-8.319-1.456-8.528-1.401c-0.44,0.115-0.747,0.513-0.747,0.968  c0,3.842,1.102,6.619,3.273,8.256c2.758,2.077,6.358,1.605,7.715,1.328c0.306,0.276,0.693,0.658,1.056,1.078  c-0.547-0.192-1.125-0.317-1.737-0.317c-2.388,0-4.387,1.604-5.035,3.784c-1.292-0.434-5.084-1.44-8.193,0.416  c-2.19,1.309-3.528,3.713-3.98,7.151c-0.524,0.353-1.416,1.01-2.166,1.818c-0.287-0.683-0.492-1.446-0.608-1.987  c0.921-1.036,3.132-3.924,2.711-7.357c-0.332-2.702-2.189-5.048-5.521-6.971c-0.394-0.226-0.892-0.161-1.212,0.163  c-0.151,0.153-3.697,3.802-3.055,8.096c0.378,2.523,2.094,4.675,5.102,6.4c0.117,0.568,0.353,1.524,0.749,2.452  c-1.003,0.121-1.951,0.395-2.504,0.578c-2.992-1.738-5.708-2.147-8.081-1.216c-4.034,1.588-5.419,6.477-5.476,6.685  c-0.121,0.438,0.07,0.903,0.464,1.131c2.145,1.238,4.136,1.859,5.95,1.858c1,0,1.946-0.188,2.836-0.565  c3.178-1.35,4.571-4.702,5.008-6.017c0.385-0.124,0.907-0.267,1.452-0.373c-0.441,0.381-0.833,0.822-1.134,1.342  c-1.194,2.067-0.803,4.601,0.76,6.252c-1.021,0.901-3.791,3.681-3.737,7.303c0.038,2.551,1.451,4.911,4.202,7.022  c0.044,0.63,0.167,1.731,0.491,2.784c-0.735-0.093-1.498-0.297-2.024-0.467c-0.437-1.315-1.832-4.675-5.015-6.026  c-2.508-1.064-5.467-0.629-8.798,1.295c-0.394,0.228-0.585,0.692-0.464,1.131c0.057,0.208,1.443,5.104,5.483,6.694  c0.826,0.325,1.694,0.487,2.602,0.487c1.699,0,3.536-0.57,5.49-1.706c0.551,0.183,1.497,0.457,2.5,0.579  c-0.398,0.929-0.634,1.887-0.751,2.456c-3.003,1.723-4.716,3.871-5.094,6.391c-0.642,4.288,2.9,7.933,3.051,8.085  c0.193,0.196,0.451,0.298,0.712,0.298c0.172,0,0.344-0.044,0.5-0.134c3.327-1.921,5.182-4.264,5.513-6.962  c0.42-3.427-1.786-6.31-2.706-7.346c0.086-0.395,0.223-0.918,0.404-1.442c0.11,0.572,0.295,1.131,0.594,1.65  c0.705,1.221,1.843,2.094,3.204,2.458c0.454,0.122,0.916,0.183,1.374,0.183c0.412,0,0.821-0.056,1.221-0.152  c0.277,1.353,1.306,5.112,4.453,6.867c2.229,1.242,4.979,1.198,8.183-0.128c0.568,0.278,1.583,0.721,2.657,0.967  c-0.448,0.59-1.006,1.149-1.417,1.519c-1.357-0.281-4.964-0.75-7.727,1.331c-2.175,1.639-3.277,4.42-3.277,8.267  c0,0.455,0.307,0.853,0.747,0.968c0.102,0.026,1.316,0.334,2.928,0.334c1.709,0,3.863-0.346,5.611-1.737  c1.996-1.589,3.002-4.149,2.992-7.617c0.434-0.386,1.143-1.068,1.749-1.875c0.606,0.809,1.318,1.493,1.753,1.88  c-0.01,3.462,0.994,6.02,2.987,7.605c1.746,1.39,3.897,1.734,5.604,1.734c1.61,0,2.823-0.307,2.925-0.333  c0.44-0.115,0.747-0.513,0.747-0.968c0-3.842-1.102-6.619-3.273-8.256c-2.758-2.077-6.359-1.606-7.715-1.328  c-0.306-0.276-0.693-0.658-1.056-1.078c0.547,0.192,1.125,0.317,1.737,0.317c2.388,0,4.387-1.604,5.035-3.784  c0.724,0.243,2.225,0.663,3.956,0.663c1.364,0,2.868-0.262,4.237-1.079c2.19-1.309,3.528-3.713,3.98-7.151  c0.524-0.353,1.416-1.01,2.166-1.818c0.287,0.683,0.492,1.446,0.608,1.987c-0.921,1.036-3.132,3.924-2.711,7.357  c0.332,2.702,2.189,5.048,5.521,6.971c0.156,0.09,0.328,0.134,0.5,0.134c0.261,0,0.519-0.102,0.712-0.297  c0.151-0.153,3.697-3.802,3.055-8.096c-0.378-2.523-2.094-4.675-5.102-6.4c-0.117-0.568-0.353-1.523-0.749-2.451  c1.004-0.121,1.951-0.396,2.503-0.58c1.951,1.134,3.785,1.703,5.482,1.703c0.905,0,1.773-0.163,2.599-0.487  c4.034-1.588,5.419-6.477,5.476-6.685c0.121-0.438-0.07-0.903-0.464-1.131c-3.326-1.921-6.281-2.354-8.786-1.293  c-3.178,1.35-4.571,4.702-5.008,6.017c-0.385,0.124-0.908,0.268-1.453,0.373c0.441-0.382,0.834-0.823,1.135-1.343  c1.194-2.067,0.803-4.601-0.76-6.252c1.021-0.901,3.791-3.681,3.737-7.303c-0.038-2.551-1.451-4.911-4.202-7.022  c-0.044-0.63-0.167-1.73-0.491-2.783c0.735,0.093,1.498,0.297,2.024,0.466C77.149,39.377,78.545,42.736,81.728,44.088z   M84.765,36.826c1.672,0.654,2.785,2.146,3.459,3.393l-8.247-3.083C81.773,36.389,83.377,36.284,84.765,36.826z M87.448,42.063  c-1.878,0.716-3.528,0.777-4.929,0.188c-1.573-0.664-2.603-2.058-3.226-3.235L87.448,42.063z M77.575,21.792  c0.74,1.205,1.474,2.911,1.205,4.682c-0.223,1.468-1.113,2.802-2.655,3.982L77.575,21.792z M59.549,17.963  c-1.362,1.031-3.084,1.227-4.415,1.176l6.718-5.538C61.531,15.584,60.761,17.046,59.549,17.963z M55.974,13.306  c1.305-1.042,2.995-1.304,4.363-1.304c0.104,0,0.205,0.001,0.305,0.004l-6.795,5.602C54.099,15.677,54.811,14.234,55.974,13.306z   M40.446,17.96c-1.208-0.914-1.978-2.373-2.297-4.351l6.7,5.524C43.534,19.19,41.806,18.989,40.446,17.96z M39.359,12.015  c1.398-0.03,3.257,0.18,4.656,1.298c1.159,0.927,1.869,2.365,2.121,4.29L39.359,12.015z M21.208,26.48  c-0.27-1.775,0.467-3.486,1.209-4.692l1.453,8.685C22.324,29.289,21.432,27.951,21.208,26.48z M15.235,36.839  c0.581-0.228,1.2-0.341,1.855-0.341c0.906,0,1.881,0.217,2.922,0.648l-8.229,3.076C12.457,38.979,13.567,37.492,15.235,36.839z   M17.477,42.253c-1.397,0.59-3.045,0.526-4.916-0.186l8.134-3.041C20.072,40.202,19.046,41.591,17.477,42.253z M15.235,63.174  c-1.672-0.654-2.785-2.146-3.459-3.393l8.247,3.083C18.228,63.612,16.624,63.717,15.235,63.174z M12.552,57.937  c1.879-0.714,3.529-0.776,4.929-0.188c1.573,0.664,2.603,2.058,3.226,3.235L12.552,57.937z M22.425,78.208  c-0.74-1.205-1.474-2.911-1.205-4.682c0.223-1.468,1.113-2.802,2.655-3.982L22.425,78.208z M40.451,82.037  c1.238-0.938,2.773-1.183,4.043-1.183c0.127,0,0.251,0.002,0.372,0.007l-6.718,5.538C38.469,84.417,39.239,82.954,40.451,82.037z   M44.026,86.694c-1.403,1.121-3.249,1.344-4.668,1.3l6.795-5.602C45.901,84.323,45.189,85.766,44.026,86.694z M59.554,82.04  c1.208,0.914,1.978,2.373,2.297,4.351l-6.7-5.524C56.471,80.814,58.194,81.012,59.554,82.04z M60.641,87.985  c-1.397,0.031-3.257-0.18-4.656-1.298c-1.159-0.927-1.869-2.365-2.121-4.29L60.641,87.985z M78.792,73.52  c0.27,1.775-0.467,3.486-1.209,4.692l-1.453-8.685C77.676,70.711,78.568,72.049,78.792,73.52z M84.765,63.161  c-1.385,0.543-2.983,0.436-4.777-0.308l8.229-3.076C87.543,61.021,86.433,62.508,84.765,63.161z M82.523,57.747  c0.632-0.267,1.314-0.399,2.046-0.399c0.887,0,1.845,0.195,2.87,0.585l-8.134,3.041C79.928,59.798,80.954,58.409,82.523,57.747z   M72.97,25.718c0.185-1.508,1.063-2.907,2.62-4.176l-1.435,8.573C73.449,28.993,72.762,27.415,72.97,25.718z M68.971,32.085  c0.846,0.227,1.552,0.769,1.989,1.526c0.903,1.563,0.365,3.57-1.199,4.474c-1.563,0.902-3.571,0.365-4.474-1.198  c-0.438-0.758-0.554-1.641-0.327-2.485c0.226-0.846,0.768-1.552,1.525-1.989c0.505-0.292,1.064-0.44,1.632-0.44  C68.402,31.972,68.688,32.009,68.971,32.085z M61.458,24.998c2.157,1.197,3.058,3.823,3.383,5.127  c-2.59,0.918-4.718,0.902-6.332-0.05c-2.071-1.223-2.879-3.734-3.161-4.975C57.812,24.146,59.864,24.112,61.458,24.998z   M46.286,23.653c1.806,0,3.275,1.47,3.275,3.275s-1.47,3.275-3.275,3.275s-3.275-1.47-3.275-3.275S44.48,23.653,46.286,23.653z   M34.076,27.576c2.116-1.27,4.842-0.735,6.133-0.367c-0.5,2.703-1.577,4.537-3.21,5.459c-2.093,1.185-4.673,0.628-5.889,0.251  C31.515,30.311,32.511,28.515,34.076,27.576z M26.525,44.517c-1.563-0.902-2.102-2.909-1.198-4.474  c0.606-1.05,1.709-1.638,2.842-1.638c0.556,0,1.117,0.142,1.632,0.438c1.564,0.903,2.103,2.91,1.199,4.475  c-0.438,0.758-1.144,1.3-1.989,1.525C28.168,45.072,27.283,44.955,26.525,44.517z M27.029,25.712  c0.212,1.694-0.48,3.282-1.189,4.411l-1.438-8.586C25.96,22.806,26.841,24.204,27.029,25.712z M22.618,52.578  c-0.041-2.467,1.782-4.561,2.749-5.494c2.091,1.784,3.141,3.634,3.123,5.509c-0.023,2.405-1.795,4.361-2.728,5.226  C23.706,56.164,22.648,54.403,22.618,52.578z M27.03,74.282c-0.185,1.508-1.063,2.907-2.62,4.176l1.435-8.573  C26.551,71.007,27.238,72.585,27.03,74.282z M31.029,67.915c-0.846-0.227-1.552-0.769-1.989-1.526  c-0.903-1.563-0.365-3.57,1.199-4.474c0.515-0.297,1.076-0.438,1.632-0.438c1.133,0,2.236,0.588,2.842,1.637  c0.438,0.758,0.554,1.641,0.327,2.485c-0.226,0.846-0.768,1.552-1.525,1.989C32.756,68.027,31.874,68.143,31.029,67.915z   M38.542,75.002c-2.157-1.197-3.058-3.823-3.383-5.127c2.59-0.918,4.718-0.902,6.332,0.05c2.071,1.223,2.879,3.734,3.161,4.975  C42.189,75.854,40.138,75.889,38.542,75.002z M53.714,76.347c-1.806,0-3.275-1.47-3.275-3.275s1.47-3.275,3.275-3.275  s3.275,1.47,3.275,3.275S55.52,76.347,53.714,76.347z M65.924,72.424c-2.116,1.27-4.842,0.735-6.133,0.367  c0.5-2.703,1.577-4.537,3.21-5.459c2.095-1.184,4.674-0.626,5.889-0.251C68.485,69.689,67.489,71.485,65.924,72.424z M69.865,65.294  c-1.308-0.457-4.82-1.406-7.835,0.289c-1.734,0.974-2.977,2.637-3.724,4.944c-0.901-1.62-2.611-2.731-4.593-2.731  c-2.909,0-5.275,2.366-5.275,5.275c0,0.964,0.279,1.856,0.732,2.635c-0.868-0.149-1.858-0.556-2.483-0.854  c-0.258-1.362-1.192-4.877-4.167-6.642c-1.711-1.015-3.771-1.26-6.141-0.754c0.25-0.417,0.463-0.858,0.593-1.34  c0.364-1.361,0.177-2.782-0.527-4.003c-1.455-2.519-4.688-3.384-7.206-1.931c-0.817,0.472-1.459,1.149-1.917,1.945  c-0.305-0.828-0.448-1.881-0.501-2.571c1.051-0.904,3.628-3.472,3.668-6.93c0.023-1.98-0.789-3.88-2.399-5.673  c0.022,0,0.043,0.004,0.065,0.004c0.458,0,0.919-0.061,1.373-0.182c1.361-0.365,2.499-1.237,3.204-2.458  c1.454-2.52,0.588-5.752-1.932-7.207c-0.816-0.471-1.724-0.689-2.642-0.687c0.565-0.677,1.405-1.327,1.976-1.718  c1.309,0.458,4.82,1.406,7.835-0.289c1.734-0.974,2.977-2.637,3.724-4.944c0.901,1.62,2.611,2.731,4.593,2.731  c2.909,0,5.275-2.366,5.275-5.275c0-0.966-0.28-1.859-0.734-2.639c0.871,0.147,1.859,0.559,2.485,0.858  c0.258,1.362,1.192,4.877,4.167,6.642c1.141,0.677,2.436,1.015,3.875,1.015c0.718,0,1.475-0.091,2.265-0.259  c-0.249,0.417-0.462,0.857-0.592,1.338c-0.364,1.361-0.177,2.782,0.527,4.003c0.977,1.69,2.753,2.636,4.577,2.636  c0.895,0,1.801-0.227,2.629-0.705c0.817-0.472,1.459-1.149,1.917-1.945c0.305,0.828,0.448,1.881,0.501,2.571  c-1.051,0.904-3.628,3.472-3.668,6.93c-0.024,1.988,0.794,3.895,2.417,5.695c-0.486-0.008-0.974,0.027-1.456,0.156  c-1.361,0.365-2.499,1.237-3.204,2.458c-1.454,2.52-0.588,5.752,1.932,7.207c0.811,0.468,1.712,0.708,2.625,0.709  C71.259,64.267,70.43,64.907,69.865,65.294z M70.199,61.156c-1.564-0.903-2.103-2.91-1.199-4.475c0.438-0.758,1.144-1.3,1.989-1.525  c0.281-0.076,0.568-0.113,0.853-0.113c0.567,0,1.128,0.148,1.633,0.44c1.563,0.902,2.102,2.909,1.198,4.474  C73.769,61.521,71.763,62.06,70.199,61.156z M72.971,74.288c-0.212-1.694,0.48-3.282,1.189-4.411l1.438,8.586  C74.04,77.194,73.159,75.796,72.971,74.288z M77.382,47.422c0.041,2.467-1.782,4.561-2.749,5.494  c-2.091-1.784-3.141-3.634-3.123-5.509c0.023-2.405,1.795-4.361,2.728-5.226C76.294,43.836,77.352,45.597,77.382,47.422z"></path></svg></g></svg>